<svg width="329" height="14" viewBox="0 0 329 14" fill="none" xmlns="http://www.w3.org/2000/svg">
<path d="M130.664 2.33984C133.102 2.33984 134.602 4.04492 134.602 6.76953C134.602 9.48828 133.113 11.2051 130.664 11.2051C128.209 11.2051 126.715 9.49414 126.715 6.76953C126.715 4.03906 128.238 2.33984 130.664 2.33984ZM130.664 3.56445C129.07 3.56445 128.057 4.80664 128.057 6.76953C128.057 8.7207 129.041 9.98047 130.664 9.98047C132.27 9.98047 133.26 8.7207 133.26 6.76953C133.26 4.80664 132.27 3.56445 130.664 3.56445ZM136.23 11V4.61914H137.443V5.59766H137.537C137.719 4.9707 138.428 4.51367 139.26 4.51367C139.447 4.51367 139.688 4.53125 139.822 4.56641V5.80859C139.717 5.77344 139.342 5.73242 139.119 5.73242C138.164 5.73242 137.49 6.33594 137.49 7.23242V11H136.23ZM149.736 9.79297V11H144.463V2.54492H145.775V9.79297H149.736ZM153.656 11.123C151.787 11.123 150.645 9.875 150.645 7.80664C150.645 5.75 151.793 4.49609 153.656 4.49609C155.514 4.49609 156.662 5.75 156.662 7.80664C156.662 9.875 155.52 11.123 153.656 11.123ZM153.656 10.0039C154.746 10.0039 155.367 9.19531 155.367 7.80664C155.367 6.42383 154.746 5.61523 153.656 5.61523C152.561 5.61523 151.945 6.42383 151.945 7.80664C151.945 9.20117 152.561 10.0039 153.656 10.0039ZM160.852 9.81641C161.93 9.81641 162.58 9.00781 162.58 7.73047C162.58 6.45898 161.924 5.64453 160.852 5.64453C159.768 5.64453 159.158 6.45898 159.158 7.73047C159.158 9.00195 159.768 9.81641 160.852 9.81641ZM160.869 13.4375C159.275 13.4375 158.244 12.7227 158.109 11.6387H159.398C159.504 12.1016 160.037 12.4004 160.887 12.4004C161.936 12.4004 162.557 11.9023 162.557 11.0586V9.83398H162.463C162.076 10.5254 161.373 10.9062 160.494 10.9062C158.865 10.9062 157.857 9.64648 157.857 7.73633C157.857 5.79102 158.877 4.51367 160.506 4.51367C161.385 4.51367 162.152 4.94727 162.51 5.63867H162.609V4.61914H163.816V11.0527C163.816 12.5117 162.674 13.4375 160.869 13.4375ZM165.668 11V4.61914H166.922V11H165.668ZM166.295 3.5C165.826 3.5 165.48 3.16602 165.48 2.73242C165.48 2.29297 165.826 1.95898 166.295 1.95898C166.764 1.95898 167.109 2.29297 167.109 2.73242C167.109 3.16602 166.764 3.5 166.295 3.5ZM168.773 11V4.61914H169.986V5.63281H170.08C170.391 4.92383 171.023 4.49609 171.984 4.49609C173.408 4.49609 174.193 5.35156 174.193 6.86914V11H172.934V7.18555C172.934 6.16016 172.488 5.65039 171.557 5.65039C170.625 5.65039 170.033 6.27148 170.033 7.26758V11H168.773ZM187.559 4.61914L185.807 11H184.5L183.182 6.30078H183.082L181.77 11H180.475L178.717 4.61914H179.994L181.137 9.48828H181.23L182.543 4.61914H183.75L185.062 9.48828H185.162L186.299 4.61914H187.559ZM188.883 11V4.61914H190.137V11H188.883ZM189.51 3.5C189.041 3.5 188.695 3.16602 188.695 2.73242C188.695 2.29297 189.041 1.95898 189.51 1.95898C189.979 1.95898 190.324 2.29297 190.324 2.73242C190.324 3.16602 189.979 3.5 189.51 3.5ZM192.434 3.03125H193.693V4.64844H195.076V5.70898H193.693V8.99023C193.693 9.6582 193.969 9.95117 194.596 9.95117C194.789 9.95117 194.9 9.93945 195.076 9.92188V10.9707C194.871 11.0059 194.637 11.0352 194.391 11.0352C192.99 11.0352 192.434 10.543 192.434 9.3125V5.70898H191.42V4.64844H192.434V3.03125ZM196.617 11V2.12891H197.865V5.64453H197.965C198.275 4.92969 198.949 4.50195 199.91 4.50195C201.27 4.50195 202.107 5.36328 202.107 6.88086V11H200.848V7.19141C200.848 6.17188 200.373 5.65625 199.482 5.65625C198.451 5.65625 197.877 6.30664 197.877 7.27344V11H196.617Z" fill="black" fill-opacity="0.51"/>
<line y1="7.5" x2="119" y2="7.5" stroke="black" stroke-opacity="0.5"/>
<line x1="210" y1="7.5" x2="329" y2="7.5" stroke="black" stroke-opacity="0.5"/>
</svg>
