<svg width="26" height="26" viewBox="0 0 26 26" fill="none" xmlns="http://www.w3.org/2000/svg">
<g clip-path="url(#clip0_2_146)">
<path d="M25.6902 13.2432C25.6902 12.178 25.6037 11.4007 25.4167 10.5946H13.2531V15.4024H20.3928C20.2489 16.5972 19.4716 18.3966 17.7442 19.6057L17.72 19.7666L21.5659 22.746L21.8324 22.7726C24.2794 20.5126 25.6902 17.1874 25.6902 13.2432Z" fill="#4285F4"/>
<path d="M13.253 25.9106C16.7509 25.9106 19.6874 24.759 21.8323 22.7726L17.7442 19.6056C16.6502 20.3686 15.1819 20.9012 13.253 20.9012C9.82709 20.9012 6.91936 18.6412 5.88283 15.5176L5.7309 15.5305L1.73186 18.6254L1.67957 18.7708C3.80998 23.0028 8.18602 25.9106 13.253 25.9106Z" fill="#34A853"/>
<path d="M5.88287 15.5177C5.60937 14.7116 5.45109 13.8478 5.45109 12.9554C5.45109 12.0628 5.60937 11.1992 5.86848 10.3931L5.86123 10.2214L1.81208 7.07678L1.6796 7.1398C0.801554 8.89599 0.297729 10.8681 0.297729 12.9554C0.297729 15.0426 0.801554 17.0146 1.6796 18.7708L5.88287 15.5177Z" fill="#FBBC05"/>
<path d="M13.253 5.00937C15.6857 5.00937 17.3267 6.06018 18.2624 6.93833L21.9187 3.36839C19.6732 1.28114 16.7509 0 13.253 0C8.18602 0 3.80998 2.90773 1.67957 7.13978L5.86844 10.3931C6.91936 7.26938 9.82709 5.00937 13.253 5.00937Z" fill="#EB4335"/>
</g>
<defs>
<clipPath id="clip0_2_146">
<rect width="26" height="26" fill="white"/>
</clipPath>
</defs>
</svg>
